<svg width="308" height="59" viewBox="0 0 308 59" fill="none" xmlns="http://www.w3.org/2000/svg">
<g clip-path="url(#clip0_6_96)">
<path d="M180.192 5.42546C183.193 8.9588 184.702 13.9666 184.713 20.445V56.2083H163.675V25.0945C163.815 22.9187 163.23 20.7617 162.012 18.9517C160.794 17.5942 159.014 16.8777 157.193 17.0172C152.796 17.0172 150.609 19.9208 150.609 25.7695V56.1894H129.571V25.0983C129.76 22.9338 129.213 20.7693 128.014 18.9555C126.773 17.6055 124.986 16.8928 123.153 17.021C121.264 16.8588 119.42 17.647 118.232 19.1252C117.055 21.12 116.512 23.4202 116.675 25.7318V56.1932H95.6367V1.76391H116.675V8.55908C118.451 5.9911 120.819 3.88316 123.575 2.41628C129.873 -0.54388 137.158 -0.54388 143.456 2.41628C146.144 3.79643 148.248 6.09668 149.387 8.8947C151.341 6.11554 153.939 3.85677 156.959 2.31069C160.093 0.828729 163.528 0.108486 166.994 0.20653C171.949 -0.113997 176.787 1.80162 180.184 5.42546H180.192Z" fill="black"/>
<path d="M302.962 5.42508C306.186 8.95842 307.792 14.0001 307.781 20.5502V56.1852H286.743V25.0941C286.939 22.8919 286.343 20.6897 285.061 18.8872C283.715 17.5297 281.833 16.8358 279.929 16.9942C277.919 16.8396 275.951 17.6126 274.586 19.0984C273.255 21.0706 272.632 23.4349 272.817 25.8106V56.189H251.779V1.76353H272.817V8.68314C274.635 6.06614 277.033 3.90918 279.824 2.37065C282.765 0.881144 286.038 0.1609 289.334 0.266485C294.409 -0.0766665 299.387 1.80501 302.966 5.42131L302.962 5.42508Z" fill="black"/>
<path d="M70.0215 1.76167V29.8662C70.1535 32.0873 69.5879 34.2933 68.4 36.1787C67.2386 37.7323 65.3682 38.5883 63.4337 38.4526C61.3974 38.6411 59.3989 37.7889 58.1318 36.1787C56.9478 34.297 56.3821 32.0873 56.5104 29.8662V25.7635C56.6386 21.212 55.6355 16.702 53.5879 12.637C51.7628 9.30348 49.1005 6.49792 45.8689 4.49557C45.8689 4.49557 44.7338 3.73762 44.1003 3.40201C39.2472 0.973548 33.8585 -0.191662 28.4322 0.0157384C22.9719 -0.138869 17.5531 1.0452 12.6547 3.46612C8.60855 5.45338 5.29016 8.66242 3.16714 12.637C1.04789 16.6718 -0.0305915 21.1705 0.029743 25.722V56.1834H21.7388V28.0977C21.6069 25.8766 22.1725 23.6706 23.3603 21.7852C24.518 20.2316 26.3921 19.3718 28.3266 19.5113C30.3931 19.3115 32.418 20.1863 33.6926 21.8267C34.8767 23.7083 35.4423 25.9181 35.3141 28.1391V32.3475C35.1972 36.8726 36.1927 41.3599 38.2177 45.4099C40.039 48.7509 42.7013 51.5565 45.9367 53.5513C46.525 53.9284 47.0944 54.3092 47.7241 54.6448C52.5735 57.0997 57.9659 58.2838 63.396 58.0952C68.8865 58.2649 74.3317 57.0771 79.2565 54.6448C83.2687 52.6387 86.5569 49.4335 88.6611 45.474C90.7803 41.4429 91.855 36.9442 91.7947 32.389V1.76167H70.0215Z" fill="black"/>
<path d="M226.515 1.76266V4.56067C222.691 1.66084 218.019 0.107231 213.218 0.141169C209.715 0.167566 206.257 0.940601 203.079 2.41503C199.903 3.85174 197.045 5.90688 194.666 8.45225C192.233 11.0504 190.325 14.0935 189.047 17.4157C187.667 20.9264 186.954 24.6671 186.943 28.438V28.6492C186.905 32.3937 187.622 36.1043 189.047 39.566C190.476 42.8391 192.369 45.8936 194.666 48.6312C197.083 51.1389 199.934 53.1903 203.079 54.6911C206.25 56.1844 209.712 56.9536 213.218 56.9423C218.268 56.8858 223.159 55.1775 227.144 52.0816V56.29H247.783V1.76266H226.515ZM227.167 33.3176C226.594 34.7392 225.768 36.044 224.727 37.1677C223.724 38.2386 222.514 39.0984 221.171 39.6904C216.922 41.5721 211.944 40.5313 208.803 37.1036C206.634 34.8448 205.447 31.8205 205.499 28.6907C205.424 25.5571 206.616 22.5253 208.803 20.2778C210.79 17.9776 213.675 16.654 216.714 16.6389C218.241 16.6313 219.753 16.9443 221.152 17.5628C222.499 18.1586 223.709 19.0259 224.708 20.1081C225.776 21.2205 226.632 22.5177 227.231 23.9356C228.438 26.9108 228.438 30.2368 227.231 33.212L227.167 33.3176Z" fill="black"/>
</g>
<defs>
<clipPath id="clip0_6_96">
<rect width="308" height="59" fill="white"/>
</clipPath>
</defs>
</svg>
