<svg width="339" height="65" viewBox="0 0 339 65" fill="none" xmlns="http://www.w3.org/2000/svg">
<path d="M198.813 6.37593C202.111 10.2581 203.768 15.7603 203.781 22.8784V62.1726H180.666V27.9869C180.819 25.5963 180.177 23.2264 178.839 21.2376C177.5 19.7461 175.545 18.9589 173.544 19.1122C168.713 19.1122 166.309 22.3024 166.309 28.7286V62.1519H143.194V27.9911C143.402 25.6129 142.801 23.2347 141.483 21.2418C140.12 19.7585 138.156 18.9754 136.143 19.1163C134.067 18.9382 132.041 19.8041 130.736 21.4282C129.443 23.62 128.847 26.1474 129.025 28.6871V62.156H105.91V2.35286H129.025V9.81894C130.976 6.99741 133.578 4.68135 136.607 3.06964C143.526 -0.182786 151.531 -0.182786 158.45 3.06964C161.404 4.58606 163.716 7.11342 164.967 10.1877C167.113 7.13413 169.968 4.65235 173.287 2.95363C176.73 1.32534 180.504 0.53399 184.312 0.641714C189.756 0.289541 195.072 2.39429 198.805 6.37593H198.813Z" fill="white"/>
<path d="M333.705 6.3756C337.247 10.2578 339.012 15.7973 339 22.994V62.1474H315.885V27.9866C316.1 25.567 315.445 23.1473 314.037 21.1669C312.558 19.6753 310.49 18.913 308.398 19.087C306.19 18.9171 304.027 19.7665 302.527 21.3989C301.064 23.5658 300.381 26.1636 300.584 28.7738V62.1516H277.469V2.35254H300.584V9.95534C302.581 7.07995 305.216 4.71003 308.282 3.0196C311.514 1.38303 315.11 0.591673 318.731 0.707683C324.308 0.33065 329.777 2.39811 333.709 6.37146L333.705 6.3756Z" fill="white"/>
<path d="M77.7654 2.35239V33.2318C77.9105 35.6721 77.289 38.0959 75.9839 40.1675C74.7078 41.8745 72.6527 42.815 70.5273 42.6659C68.2899 42.873 66.094 41.9367 64.7019 40.1675C63.4009 38.1001 62.7794 35.6721 62.9203 33.2318V28.724C63.0612 23.7231 61.9591 18.7678 59.7093 14.3014C57.704 10.6388 54.7789 7.55627 51.2282 5.35622C51.2282 5.35622 49.981 4.52343 49.285 4.15469C43.9527 1.48646 38.032 0.206202 32.0699 0.434079C26.0706 0.264207 20.1168 1.56518 14.7347 4.22512C10.289 6.4086 6.64302 9.93447 4.31039 14.3014C1.9819 18.7347 0.79694 23.6775 0.863232 28.6784V62.1473H24.7157V31.2886C24.5707 28.8483 25.1922 26.4245 26.4973 24.3529C27.7693 22.6459 29.8284 21.7012 31.9539 21.8545C34.2244 21.6349 36.4493 22.5961 37.8497 24.3984C39.1507 26.4659 39.7722 28.8938 39.6313 31.3342V35.958C39.5029 40.9299 40.5967 45.8603 42.8216 50.3101C44.8227 53.981 47.7479 57.0635 51.3027 59.2553C51.9491 59.6696 52.5747 60.0881 53.2666 60.4568C58.5948 63.1541 64.5196 64.455 70.4858 64.2479C76.5183 64.4343 82.5011 63.1292 87.9122 60.4568C92.3206 58.2526 95.9334 54.7309 98.2454 50.3805C100.574 45.9514 101.755 41.0086 101.688 36.0036V2.35239H77.7654Z" fill="white"/>
<path d="M249.709 2.35213V5.42639C245.508 2.24026 240.375 0.533256 235.1 0.570544C231.251 0.599547 227.452 1.44891 223.959 3.0689C220.471 4.64747 217.33 6.90552 214.716 9.70219C212.043 12.5569 209.947 15.9004 208.542 19.5506C207.026 23.408 206.243 27.518 206.231 31.6612V31.8933C206.189 36.0075 206.976 40.0844 208.542 43.8879C210.113 47.4842 212.193 50.8402 214.716 53.8482C217.372 56.6034 220.504 58.8573 223.959 60.5063C227.444 62.147 231.247 62.9922 235.1 62.9798C240.648 62.9177 246.022 61.0408 250.401 57.6392V62.263H273.077V2.35213H249.709ZM250.426 37.0226C249.796 38.5846 248.889 40.0181 247.746 41.2528C246.643 42.4295 245.313 43.3741 243.839 44.0246C239.169 46.0921 233.7 44.9485 230.249 41.1823C227.866 38.7006 226.561 35.3777 226.619 31.9388C226.536 28.4958 227.846 25.1647 230.249 22.6953C232.432 20.168 235.602 18.7137 238.941 18.6971C240.619 18.6888 242.281 19.0327 243.818 19.7122C245.297 20.3668 246.627 21.3198 247.725 22.5089C248.897 23.7311 249.838 25.1564 250.497 26.7142C251.822 29.9832 251.822 33.6375 250.497 36.9065L250.426 37.0226Z" fill="white"/>
</svg>
